<?xml version="1.0" ?><svg viewBox="0 0 64 64" xmlns="http://www.w3.org/2000/svg"><title/><g data-name="17" id="_17"><path d="M59,8H5A1,1,0,0,0,4,9V44a1,1,0,0,0,1,1h5.75L2.12,52.52A1,1,0,0,0,2.06,54L7,58.93a1,1,0,0,0,.71.3h0a1,1,0,0,0,.71-.32L21.44,45H59a1,1,0,0,0,1-1V9A1,1,0,0,0,59,8ZM7.7,56.79,4.24,53.33l9.89-8.62h0l10.51-9.15L26.13,37,24,39.28l0,0-3.72,4h0ZM24,26H18V21h6ZM58,43H23.3l1.87-2H55a1,1,0,0,0,1-1V29a1,1,0,0,0-2,0V39H27l1.21-1.3a1,1,0,0,0,0-1.39l-2.57-2.57A1,1,0,0,0,26,33V20a1,1,0,0,0-1-1H17a1,1,0,0,0-1,1V33a1,1,0,0,0,2,0V28h6v5a.9.9,0,0,0,.09.4l-.05,0L17.64,39H10V14H45a1,1,0,0,0,0-2H9a1,1,0,0,0-1,1V40a1,1,0,0,0,1,1h6.35l-2.3,2H6V10H58Z"/><path d="M49,14h5V26a1,1,0,0,0,2,0V13a1,1,0,0,0-1-1H49a1,1,0,0,0,0,2Z"/><path d="M33.62,19H28a1,1,0,0,0-1,1V33a1,1,0,0,0,1,1h5.62A3.39,3.39,0,0,0,37,30.62V22.38A3.39,3.39,0,0,0,33.62,19Zm0,2A1.38,1.38,0,0,1,35,22.38V26H29V21Zm0,11H29V28h6v2.62A1.38,1.38,0,0,1,33.62,32Z"/><path d="M38,20V33a1,1,0,0,0,1,1h8a1,1,0,0,0,0-2H40V21h7a1,1,0,0,0,0-2H39A1,1,0,0,0,38,20Z"/></g></svg>